<svg xmlns="http://www.w3.org/2000/svg" width="256" height="256" version="1.2" viewBox="0 0 419 419"><path d="M49 4.1c-2.5.5-8.1 2.6-12.5 4.8-5.1 2.5-10.2 6-14.1 9.7C19 21.9 14.7 27 12.7 30s-4.9 8.7-6.4 12.5l-2.8 7v320c4.3 10.9 7.1 16.3 9 19 1.8 2.8 5.1 6.9 7.2 9.1 2.1 2.3 6 5.8 8.8 7.6 2.7 1.9 6.8 4.4 9 5.5s6.9 2.8 10.5 3.7c5.9 1.4 22 1.6 161.5 1.6 146.6 0 155.4-.1 162-1.8 3.9-1 9.7-3.1 13-4.8 3.8-1.8 8.9-5.8 14.1-10.9 6.5-6.4 8.9-9.6 11.9-16 2-4.4 4.3-10.9 5.1-14.5 1.1-5.3 1.4-33.9 1.4-158.5s-.3-153.2-1.4-158.5c-.8-3.6-3.1-10.1-5.1-14.5-3-6.4-5.4-9.6-11.9-16-6.2-6.2-10-8.9-16.1-11.9-4.4-2.1-10.5-4.2-13.5-4.7s-75.3-.8-160.5-.8c-85.3.1-157 .5-159.5 1" style="fill:#e1e1e1"/><path d="M81.3 103c-1.8 1.1-4.1 3.7-5.2 5.8-1 2-3 7.8-4.4 12.7s-5.1 18.2-8.1 29.5-7.7 28.8-10.5 39c-2.7 10.2-6.8 25.7-9.1 34.5s-6.8 26.6-10.1 39.5c-3.2 12.9-8 32.1-10.5 42.5s-5.6 24.1-6.9 30.3c-1.4 6.1-2.5 12.9-2.5 14.9 0 2.1.4 4.3.8 4.9s1.8 1.7 3.2 2.4c1.8.9 10 1.5 28 1.8 22.8.5 25.8.4 28.3-1.1 1.5-.9 2.9-2.5 3.1-3.5.2-.9 3.4-14.3 7.1-29.7s10.7-44.2 15.7-64c4.9-19.8 11.8-46.6 15.3-59.5s6.6-24.3 6.9-25.3c.3-.9 1.4-1.7 2.4-1.7.9 0 3.3 2.1 5.3 4.7 2 2.7 9 12.2 15.6 21.3 6.5 9.1 17.7 24.4 24.7 34 7.1 9.6 16.2 21.7 20.2 26.8 4.1 5 8.4 9.9 9.7 10.7 1.7 1.1 2.9 1.3 5.2.5 1.8-.6 4.4-2.9 6.5-5.7 1.9-2.7 9.8-12.9 17.5-22.8 7.8-9.9 19.5-25 26.1-33.5s14.7-19.1 18.1-23.5c3.3-4.4 6.7-8.6 7.7-9.3 1.3-1 1.8-.8 3 1.1.8 1.2 2.8 9.4 4.5 18.2 1.6 8.8 4.6 25.2 6.5 36.5 2 11.3 4.5 25.6 5.6 31.8l2 11.2c-12.9 12.8-15.3 15.9-17.1 20.5-2.3 5.8-2.4 6.9-2.4 32 .1 16.7.5 28.1 1.3 32 .7 3.3 2.5 8.7 4 11.9 1.6 3.5 4.4 7.4 6.8 9.5 2.3 2 6.3 4.8 9 6.3s7.6 3.4 10.9 4.2c4.6 1.2 11.3 1.6 29 1.6 20.4 0 23.8-.3 30-2.1 3.9-1.2 8.6-2.9 10.5-3.9s5.2-3.5 7.3-5.7c2.2-2.1 5.1-5.8 6.5-8.3s3.4-7.6 4.4-11.5c1.5-5.7 1.8-10.9 1.8-27.5 0-11.3-.5-23.9-1-28-.7-5.1-2-9.6-4.2-13.9-1.8-3.5-5.3-8.2-7.8-10.6-2.5-2.3-7.2-5.5-10.5-7.2s-7.8-3.6-10-4.3-4.4-1.7-5-2.2-2-5-3.1-10.1c-1.2-5.1-4.9-20.9-8.2-35.2-3.4-14.3-8.5-36.1-11.5-48.5s-7.6-31.9-10.1-43.5c-2.6-11.6-5.5-22.7-6.4-24.8-1.1-2.5-2.9-4.3-5.2-5.4-2.9-1.3-6.6-1.5-23-1.1-16.8.3-20.1.7-24 2.4-3.3 1.5-7.2 5.1-14.6 13.5-5.5 6.3-15.2 17.5-21.4 24.9-6.3 7.4-16.1 18.9-21.9 25.5-5.7 6.6-11.5 13-13 14.2l-2.6 2.2c-29.4-35.9-42.7-51.7-48.5-58.3-5.8-6.5-11.8-13.5-13.5-15.4s-5-4.6-7.5-6c-3.6-2.1-6.5-2.7-15-3.3-5.8-.5-15.4-.8-21.5-.8-9.3-.1-11.5.2-14.3 1.9z" style="fill:#131a1e"/><path d="M325.5 273c-2.8.4-7 1.3-9.5 2s-5.7 1.8-7.3 2.6c-1.5.8-3.7 2.2-5 3.1-1.2 1-4.7 4.3-7.8 7.3-3.9 3.9-6.2 7.2-7.8 11.5-1.3 3.5-2.6 9.8-3.1 15-.4 4.9-.4 16.6.1 26 .4 9.4 1.4 19.7 2.2 23 .7 3.3 2.7 8.4 4.3 11.3 1.9 3.6 4.9 6.8 8.9 9.8 3.3 2.4 8.4 5.3 11.3 6.4 2.8 1.1 9.8 2.5 15.4 3.1 6.1.7 16.2.9 24.8.5 10.1-.4 16.6-1.2 21.5-2.6 3.9-1.1 8.6-3.1 10.5-4.3s5.1-3.7 7.1-5.7c2-1.9 4.3-4.9 5.2-6.5s2.5-5.3 3.7-8c1.1-2.8 2.4-8.6 2.9-13s.6-15 .4-23.5-.8-18.5-1.3-22.3c-.6-3.7-2-8.6-3.1-11-1.2-2.3-3.8-6.2-5.8-8.6-2-2.5-6.3-6.2-9.6-8.3s-7.4-4.1-9-4.4c-1.6-.4-5.7-1.5-9-2.5-4.9-1.6-8.8-1.9-20.5-1.8-8 .1-16.8.5-19.5.9" style="fill:#13a8ee"/><path d="M315.6 304c-.3.5-.3 13.3 0 28.3.3 14.9.7 28.2 1 29.4.3 1.6 1.1 2.3 2.6 2.3 1.3 0 9.9-4.1 19.3-9.1 9.3-5 20.7-11.4 25.3-14.2 6.1-3.9 8.2-5.7 8-7.1-.2-1.2-5.7-4.9-16.8-11.2-9.1-5.2-20.6-11.4-25.5-13.9-5-2.4-10-4.7-11.1-5-1.2-.3-2.5-.1-2.8.5" style="fill:#84efd3"/></svg>